<!-- Generated by IcoMoon.io -->
<svg version="1.1" xmlns="http://www.w3.org/2000/svg" width="1024" height="1024" viewBox="0 0 1024 1024">
<g id="icomoon-ignore">
</g>
<path fill="#567afb" d="M494.434 215.602c1.361 0.629 2.723 1.258 4.125 1.906 6.74 3.642 8.552 9.329 11.875 16.094 0 1.98 0 3.96 0 6 1.32 0 2.64 0 4 0 0.33-1.691 0.66-3.382 1-5.125 5.13-11.757 14.322-18.489 25.586-24.234 23.485-8.364 48.195-1.852 70.32 7.414 15.066 7.401 27.835 20.057 37.094 33.945 5.472 1.617 5.472 1.617 11.875 2.625 26.412 5.724 46.007 20.278 61.586 42.258 5.539 9.859 7.038 18.389 8.039 29.617 0.912 9.693 0.912 9.693 6.242 17.391 3.101 1.914 6.269 3.722 9.492 5.422 16.91 9.536 25.494 28.846 30.766 46.688 0.518 6.161 0.518 6.161 0.531 12.633 0.005 2.353 0.010 4.705 0.016 7.129-0.015 2.43-0.031 4.86-0.047 7.363 0.015 2.438 0.031 4.875 0.047 7.387-0.008 3.525-0.008 3.525-0.016 7.121-0.005 2.134-0.009 4.267-0.014 6.465-0.733 8.359-2.559 13.943-8.518 19.902 0.928 1.609 0.928 1.609 1.875 3.25 8.289 18.529 5.848 42.426-1.094 60.906-10.698 22.477-27.553 38.841-50.781 47.844-2.827 0.536-5.66 1.037-8.5 1.5-7.407 1.645-7.407 1.645-9.93 5.945-1.299 2.791-2.529 5.616-3.688 8.469-2.821 6.121-6.885 9.644-11.883 14.086 2.346 7.037 3.662 7.495 9.875 11 6.059 3.431 8.115 4.985 12.125 11 0.915 8.989 0.913 17.997 0.961 27.027 0.039 4.431 0.163 8.855 0.289 13.285 0.353 23.762 0.353 23.762-7.063 32.594-7.665 7.119-13.034 7.321-23.438 7.219-2.377-0.018-4.754-0.036-7.203-0.055-1.83-0.023-3.661-0.046-5.547-0.070-0.34 2.177-0.34 2.177-0.688 4.398-4.625 19.739-19.649 33.766-35.883 44.672-18.080 9.828-39.298 9.733-59.43 10.93 0 3.96 0 7.92 0 12 1.905-0.093 3.81-0.186 5.773-0.281 2.509-0.072 5.017-0.144 7.602-0.219 2.483-0.093 4.965-0.186 7.523-0.281 8.241 0.907 11.317 2.986 17.102 8.781 3.1 6.201 2.58 11.158 2 18-3.591 5.507-6.105 9.053-12 12-5.184 0.238-10.316 0.357-15.502 0.386-1.6 0.016-3.201 0.033-4.85 0.050-5.31 0.050-10.62 0.083-15.93 0.112-1.813 0.011-3.626 0.021-5.493 0.032-9.597 0.053-19.194 0.092-28.791 0.121-9.909 0.033-19.817 0.123-29.725 0.225-7.622 0.067-15.243 0.090-22.864 0.102-3.652 0.013-7.304 0.044-10.956 0.092-5.118 0.063-10.233 0.063-15.352 0.049-1.503 0.033-3.006 0.066-4.554 0.099-11.539-0.136-16.198-3.351-23.983-11.266-2.853-5.706-2.621-9.669-2-16 3.6-5.4 6.168-9.084 12-12 5.103-0.143 10.149-0.186 15.25-0.125 2.119 0.014 2.119 0.014 4.281 0.027 3.49 0.024 6.979 0.059 10.469 0.098 0-4.62 0-9.24 0-14-2.055 0.070-4.11 0.139-6.227 0.211-27.553 0.66-51.167-2.981-72.297-22.359-8.944-9.473-19.477-22.094-19.477-35.852-1.616 0.070-3.233 0.139-4.898 0.211-2.137 0.054-4.275 0.108-6.477 0.164-2.111 0.070-4.223 0.139-6.398 0.211-9.293-0.875-14.035-4.328-20.446-10.933-6.507-9.729-5.114-20.803-5.043-32.127 0.013-4.252-0.081-8.493-0.183-12.744-0.218-22.666-0.218-22.666 6.773-31.484 5.572-5.17 11.193-7.694 18.672-9.297-13.41-21.156-24.408-34.88-48.477-43.086-14.497-5.151-23.087-13.318-30.148-26.789-0.666-1.19-1.333-2.38-2.020-3.605-8.145-14.876-9.996-26.729-9.855-43.395-0.015-1.832-0.031-3.664-0.047-5.551 0.024-8.403 0.411-15.114 2.813-23.238 2.051-7.494 1.161-9.901-2.016-16.836-9.915-27.071-6.054-57.643 5.75-83.5 7.197-11.181 16.095-19.854 29.18-23.406 1.591-0.856 3.181-1.712 4.82-2.594 1.655-5.382 1.655-5.382 1.875-11.75 3.201-25.949 16.262-43.959 36.125-60.25 14.187-9.359 30.845-15.107 48-14 0.454-1.403 0.908-2.805 1.375-4.25 9.298-20.367 29.826-30.477 49.852-38.297 21.326-6.492 46.97-10.392 64.773 4.547z"></path>
<path fill="#755afb" d="M580.434 235.602c18.030 4.822 32.854 13.995 43.75 29.25 2.296 4.847 4.279 9.763 6.25 14.75 1.789 0.052 3.578 0.103 5.422 0.156 19.424 0.911 38.392 3.263 52.578 17.844 15.115 19.472 16.605 35.761 16 60 1.114 0.415 2.227 0.83 3.375 1.258 18.552 7.49 31.54 18.806 40.625 36.742 5.993 17.98 2.293 37.383-6 54-1.32 1.32-2.64 2.64-4 4-1.103 7.905-0.542 11.204 4 17.875 7.062 11.325 5.358 25.362 4 38.125-1.826 6.669-4.341 12.154-8 18-1.072 1.774-2.145 3.548-3.25 5.375-16.33 15.9-32.819 18.929-54.75 20.625-0.294 1.74-0.294 1.74-0.594 3.516-2.025 10.578-4.875 17.708-11.406 26.484-2.873 3.903-2.873 3.903-4 8 1.661 5.152 1.661 5.152 4 10 0 1.98 0 3.96 0 6 11.028-6.531 17.057-13.081 23-24.5 6.104-11.166 6.104-11.166 14.375-14.25 1.328-0.157 2.655-0.315 4.023-0.477 16.71-2.809 30.901-13.152 41.359-26.023 10.327-15.129 13.602-29.4 13.617-47.5 0.024-1.485 0.049-2.97 0.074-4.5 0.024-9.107-1.247-16.118-4.449-24.75 0.39-5.713 1.496-10.639 3.484-16.008 7.559-21.273 8.051-46.373-0.953-67.266-7.484-13.974-17.553-27.847-33.156-32.852-5.375-3.875-5.375-3.875-6.219-8.734-0.195-4.163-0.373-8.328-0.539-12.492-1.796-19.351-11.575-33.163-25.031-46.531-3.586-4.117-3.586-4.117-3.586-10.117 14.963 6.665 25.254 19.758 32.141 34.297 2.207 6.77 2.748 13.116 3.359 20.203 0.912 9.693 0.912 9.693 6.242 17.391 3.101 1.914 6.269 3.722 9.492 5.422 16.91 9.536 25.494 28.846 30.766 46.688 0.518 6.161 0.518 6.161 0.531 12.633 0.005 2.353 0.010 4.705 0.016 7.129-0.015 2.43-0.031 4.86-0.047 7.363 0.015 2.438 0.031 4.875 0.047 7.387-0.005 2.35-0.010 4.7-0.016 7.121-0.005 2.134-0.009 4.267-0.014 6.465-0.733 8.359-2.559 13.943-8.518 19.902 0.619 1.072 1.237 2.145 1.875 3.25 8.289 18.529 5.848 42.426-1.094 60.906-10.698 22.477-27.553 38.841-50.781 47.844-2.827 0.536-5.66 1.037-8.5 1.5-7.407 1.645-7.407 1.645-9.93 5.945-1.299 2.791-2.529 5.616-3.688 8.469-2.821 6.121-6.885 9.644-11.883 14.086 2.346 7.037 3.662 7.495 9.875 11 6.059 3.431 8.115 4.985 12.125 11 0.915 8.989 0.913 17.997 0.961 27.027 0.039 4.431 0.163 8.855 0.289 13.285 0.353 23.762 0.353 23.762-7.063 32.594-7.665 7.119-13.034 7.321-23.438 7.219-2.377-0.018-4.754-0.036-7.203-0.055-1.83-0.023-3.661-0.046-5.547-0.070-0.34 2.177-0.34 2.177-0.688 4.398-4.625 19.739-19.649 33.766-35.883 44.672-18.080 9.828-39.298 9.733-59.43 10.93 0 3.96 0 7.92 0 12 1.905-0.093 3.81-0.186 5.773-0.281 2.509-0.072 5.017-0.144 7.602-0.219 2.483-0.093 4.965-0.186 7.523-0.281 8.241 0.907 11.317 2.986 17.102 8.781 3.1 6.201 2.58 11.158 2 18-3.591 5.507-6.105 9.053-12 12-5.184 0.238-10.316 0.357-15.502 0.386-1.6 0.016-3.201 0.033-4.85 0.050-5.31 0.050-10.62 0.083-15.93 0.112-1.813 0.011-3.626 0.021-5.493 0.032-9.597 0.053-19.194 0.092-28.791 0.121-9.909 0.033-19.817 0.123-29.725 0.225-7.622 0.067-15.243 0.090-22.864 0.102-3.652 0.013-7.304 0.044-10.956 0.092-5.118 0.063-10.233 0.063-15.352 0.049-1.503 0.033-3.006 0.066-4.554 0.099-11.539-0.136-16.198-3.351-23.983-11.266-2.853-5.706-2.621-9.669-2-16 3.6-5.4 6.168-9.084 12-12 5.103-0.143 10.149-0.186 15.25-0.125 2.119 0.014 2.119 0.014 4.281 0.027 3.49 0.024 6.979 0.059 10.469 0.098 0-4.62 0-9.24 0-14-10.56 0-21.12 0-32 0-1.32-2.64-2.64-5.28-4-8 7.594-4.98 15.319-4.586 24.076-4.574 1.614-0.014 3.228-0.027 4.891-0.041 3.501-0.027 7.002-0.045 10.502-0.055 5.55-0.017 11.1-0.058 16.65-0.105 11.793-0.096 23.587-0.162 35.381-0.224 13.643-0.071 27.285-0.156 40.927-0.272 5.45-0.040 10.901-0.057 16.351-0.073 3.37-0.026 6.74-0.053 10.11-0.081 1.501 0.002 3.002 0.004 4.548 0.006 17.802-0.207 35.578-4.257 48.915-16.611 16.478-17.713 19.944-33.873 20.055-57.492 0.011-1.892 0.023-3.783 0.035-5.732 0.019-3.999 0.032-7.998 0.040-11.998 0.019-6.066 0.081-12.13 0.145-18.196 0.013-3.9 0.024-7.799 0.031-11.699 0.037-2.685 0.037-2.685 0.075-5.425-0.074-21.167-5.687-38.263-20.731-53.426-14.852-11.756-29.434-14.593-47.984-14.828-1.892-0.039-3.784-0.077-5.733-0.117-6.011-0.119-12.021-0.212-18.033-0.305-4.089-0.076-8.177-0.155-12.266-0.234-9.995-0.195-19.989-0.354-29.984-0.516 0-12.54 0-25.080 0-38 3.96-1.98 3.96-1.98 8-4 1.937-5.811 2.392-9.933 2.5-16 0.077-2.599 0.077-2.599 0.156-5.25-0.273-4.839-0.273-4.839-3.313-8.25-7.264-5.431-14.611-5.403-23.344-4.5-7.546 5.414-9.679 8.495-11.625 17.625-0.186 3.156-0.186 3.156-0.375 6.375-0.66 0-1.32 0-2 0-2.234-7.819-2.509-11.001 1.25-18.375 6.225-7.371 10.765-11.005 20.375-12.5 8.497 1.166 14.981 4.672 22.375 8.875 0-1.98 0-3.96 0-6-1.567-0.577-3.135-1.155-4.75-1.75-5.25-2.25-5.25-2.25-9.25-6.25 10.721 0.919 11.294 3.294 20 12 0.66-9.9 1.32-19.8 2-30 3.712-0.028 7.425-0.057 11.25-0.086 4.917-0.094 9.833-0.19 14.75-0.289 3.662-0.017 3.662-0.017 7.398-0.035 14.5-0.353 25.642-1.442 36.602-11.59 4.678-6.791 6.191-12.34 7-20.375 1-7.625 1-7.625 3.203-11.047 5.756-3.908 10.669-3.446 17.547-3.453 2.429-0.039 4.857-0.077 7.359-0.117 8.016 1.154 10.893 3.767 16.891 8.992 5.575 1.531 10.373 1.271 16 0 6.373-3.54 6.373-3.54 10-10 1.721-8.559 1.396-15.398-2.75-23.125-8.203-4.492-16.129-4.684-25.25-2.875-1.485 1.609-2.97 3.217-4.5 4.875-8.131 7.577-16.076 6.122-26.852 6.539-8.912 0.785-12.225 2.501-18.648 8.586-2.289 2.166-2.289 2.166-4.625 4.375-4.019 6.698-4.331 11.563-4.438 19.258-1.338 6.232-4.005 8.406-8.938 12.367-5.682 0.908-5.682 0.908-12.156 0.781-2.092-0.020-4.183-0.040-6.338-0.061-2.642-0.073-5.284-0.146-8.006-0.221-8.415-0.165-16.83-0.33-25.5-0.5 0-17.82 0-35.64 0-54 24-0.5 24-0.5 31.469-0.596 13.646-0.42 22.971-1.982 34.531-9.404 7.554-9.491 10.039-16.711 10.5-28.625 0.601-7.746 1.243-12.299 6.625-18 5.375-4.948 5.375-4.948 5.875-11.5-1.385-8.135-3.847-13.592-10.625-18.5-6.020-1.892-10.079-2.256-16.375-1.375-7.032 3.693-7.032 3.693-12 10-1.632 7.228-0.778 13.726 1.625 20.75 2.526 3.848 2.526 3.848 8.375 7.25 0.867 5.359 0.867 5.359 0.875 11.75 0.039 2.099 0.077 4.197 0.117 6.359-1.243 7.377-3.155 9.317-8.992 13.891-5.682 0.908-5.682 0.908-12.156 0.781-2.32-0.026-4.641-0.052-7.031-0.078-2.413-0.067-4.826-0.134-7.313-0.203-2.444-0.036-4.888-0.072-7.406-0.109-6.033-0.094-12.062-0.226-18.094-0.391-0.232-14.986-0.409-29.972-0.518-44.959-0.052-6.96-0.123-13.918-0.236-20.877-0.13-8.003-0.178-16.004-0.222-24.008-0.052-2.496-0.103-4.992-0.156-7.564-0.001-3.483-0.001-3.483-0.002-7.036-0.033-3.064-0.033-3.064-0.067-6.191 1.203-5.366 1.203-5.366 5.882-10.017 10.238-6.444 21.687-4.746 33.32-3.349z"></path>
<path fill="#fdfcfd" d="M518.434 477.602c5.746 2.809 9.49 5.49 14 10 0.742 4.414 0.742 4.414 0.875 9.625 0.12 2.556 0.12 2.556 0.242 5.164-1.117 5.211-1.117 5.211-6.085 9.31-7.051 8.269-6.586 14.98-6.657 25.526-0.050 1.767-0.101 3.535-0.152 5.355-0.117 4.339-0.176 8.679-0.223 13.020 3.751-0.063 3.751-0.063 7.577-0.127 9.356-0.146 18.711-0.237 28.067-0.313 4.035-0.040 8.069-0.094 12.104-0.164 5.829-0.098 11.657-0.143 17.486-0.178 1.778-0.041 3.556-0.083 5.388-0.125 18.687-0.007 34.231 6.062 47.87 18.93 14.508 16.447 18.131 34.718 18.109 55.961 0.009 1.891 0.017 3.782 0.026 5.73 0.011 3.984 0.013 7.967 0.004 11.951-0.006 6.052 0.041 12.103 0.091 18.155 0.005 3.888 0.006 7.776 0.004 11.664 0.018 1.788 0.037 3.576 0.056 5.418-0.137 18.905-5.507 37.39-18.806 51.308-17.589 16.394-33.288 20.061-57.146 20.143-1.683 0.013-3.366 0.026-5.1 0.040-5.543 0.039-11.086 0.063-16.629 0.083-2.855 0.012-2.855 0.012-5.767 0.025-10.075 0.042-20.151 0.070-30.226 0.089-10.36 0.022-20.72 0.091-31.080 0.17-8.008 0.052-16.016 0.069-24.024 0.076-3.817 0.010-7.634 0.033-11.45 0.070-48.165 0.441-48.165 0.441-67.304-17.032-1.542-1.343-3.083-2.686-4.672-4.070-12.682-16.080-16.108-32.283-15.977-52.367-0.014-2.269-0.029-4.539-0.043-6.877-0.015-4.767-0.006-9.533 0.028-14.3 0.038-7.243-0.040-14.479-0.129-21.722-0.001-4.659 0.006-9.318 0.020-13.977-0.031-2.136-0.061-4.272-0.093-6.473 0.268-17.513 5.655-31.499 17.665-44.458 14.921-14.134 28.877-18.857 49.201-18.412 1.975 0.011 3.95 0.023 5.985 0.034 6.256 0.044 12.51 0.145 18.765 0.247 4.263 0.040 8.526 0.077 12.789 0.109 10.404 0.088 20.808 0.221 31.211 0.391-0.104-6.169-0.294-12.333-0.5-18.5-0.028-1.745-0.057-3.491-0.086-5.289-0.259-10.405-0.259-10.405-5.383-19.18-1.33-1-2.661-2.001-4.031-3.031-3.202-6.403-2.998-13.052-2-20 7.325-11.476 12.622-12.907 26-12z"></path>
<path fill="#f9f9fb" d="M621.528 231.735c9.526 7.508 18.665 15.54 20.906 27.867 2.104-0.206 4.207-0.413 6.375-0.625 21.375 0.038 40.265 12.028 55.352 26.102 13.526 13.99 20.852 30.513 20.898 50.023-0.157 3.503-0.346 7.005-0.625 10.5 2.475 0.557 2.475 0.557 5 1.125 17.715 7.276 28.427 22.324 37.070 38.828 7.728 18.62 6.516 42.733-0.195 61.422-0.766 1.781-1.531 3.563-2.32 5.398-2.245 7.547-0.624 13.542 1.531 20.969 4.72 21.988 1.834 45.555-9.797 64.727-11.7 16.687-26.123 26.688-45.289 33.531-2.083 0.206-4.166 0.413-6.313 0.625-6.033 0.805-6.033 0.805-8.992 5.961-1.272 2.866-1.272 2.866-2.57 5.789-5.311 10.763-10.366 16.681-20.125 23.625-1.32 0-2.64 0-4 0-2.774-6.589-5.062-12.89-6-20 4.375-6.625 4.375-6.625 10-12 3.732-7.66 5.675-15.818 8-24 2.9-0.224 2.9-0.224 5.859-0.453 18.625-1.881 33.955-4.807 47.438-19.023 12.006-15.65 12.499-33.433 10.703-52.523-2.091-5.4-4.707-9.163-8-14-1.753-10.738 1.99-15.338 8-24 5.797-14.203 6.712-30.905 2.32-45.633-7.182-15.84-18.189-26.151-34.195-32.742-1.503-0.523-3.006-1.047-4.555-1.586-3.57-2.039-3.57-2.039-5.094-5.617-0.54-5.010-0.445-9.762-0.227-14.797 0.128-15.977-3.645-27.557-14.25-39.625 0-1.32 0-2.64 0-4-1.152-0.575-2.305-1.15-3.492-1.742-2.864-1.434-5.723-2.876-8.578-4.328-1.338-0.678-2.676-1.356-4.055-2.055-1.343-0.683-2.686-1.366-4.070-2.070-10.199-4.838-20.395-4.508-31.5-5.047-6.305-0.758-6.305-0.758-10.305-4.758-0.866-2.145-1.732-4.29-2.625-6.5-7.663-17.968-19.98-23.893-37.375-31.5-6.927-2.309-12.577-2.408-19.875-2.5-2.452-0.052-4.904-0.103-7.43-0.156-7.333 0.719-9.583 1.52-14.695 6.656-1.236 5.267-1.236 5.267-1.092 11.33-0.059 3.483-0.059 3.483-0.12 7.036-0.004 3.76-0.004 3.76-0.007 7.595-0.033 2.566-0.066 5.133-0.1 7.777-0.087 6.816-0.127 13.631-0.157 20.448-0.039 6.958-0.123 13.916-0.203 20.873-0.151 13.647-0.251 27.294-0.32 40.941 8.543-0.161 17.084-0.387 25.625-0.625 2.43-0.045 4.86-0.090 7.363-0.137 2.327-0.071 4.654-0.142 7.051-0.215 3.221-0.079 3.221-0.079 6.506-0.159 5.467-0.439 5.467-0.439 9.148-3.577 3.508-5 3.174-9.259 3.182-15.288 0.039-2.104 0.077-4.207 0.117-6.375-0.42-5.855-0.42-5.855-4.922-9-1.343-0.866-2.686-1.733-4.070-2.625-2.507-7.521-3.782-14.243-2-22 5.368-7.37 11.212-11.431 20.125-13.25 8.806 1.874 15.259 5.683 20.625 13 1.753 5.96 2.118 10.047 1.25 16.25-2.54 2.8-5.083 5.597-7.672 8.352-3.959 6.205-3.38 12.951-3.742 20.141-1.158 10.887-5.711 18.706-13.461 26.258-9.109 5.777-16.25 7.751-27.039 7.641-2.005-0.010-4.011-0.020-6.077-0.030-2.519-0.036-5.039-0.073-7.634-0.11-12.066-0.124-12.066-0.124-24.375-0.25 0 17.82 0 35.64 0 54 8.456-0.206 16.913-0.413 25.625-0.625 3.99-0.075 3.99-0.075 8.061-0.151 2.096-0.066 4.193-0.132 6.353-0.201 3.221-0.079 3.221-0.079 6.506-0.159 5.488-0.43 5.488-0.43 9.169-3.681 2.936-4.089 2.821-6.567 2.786-11.559 0.883-11.499 6.979-18.269 15.5-25.625 7.064-4.73 13.516-4.455 21.875-4.625 12.231-0.655 15.808-2.364 24.125-11.375 10.009-2.166 17.537-1.527 26.25 3.875 5.034 8.222 5.643 14.712 3.75 24.125-3.588 5.741-5.965 8.983-12 12-11.289 0.925-11.289 0.925-16 0-1.526-1.317-3.053-2.635-4.625-3.992-6.951-5.183-11.177-4.957-19.75-4.758-2.462 0.026-4.924 0.052-7.461 0.078-6.371 0.043-6.371 0.043-10.164 4.672-1.067 4.457-1.067 4.457-1.75 9.5-2.263 11.988-5.988 19.198-15.797 26.797-11.178 6.175-23.948 4.541-36.328 4.203-2.512-0.036-5.025-0.072-7.613-0.109-6.171-0.094-12.342-0.237-18.512-0.391 0 10.56 0 21.12 0 32-5.94-4.95-5.94-4.95-12-10-5.425-2.61-5.425-2.61-10-4-0.187-29.52-0.328-59.040-0.414-88.561-0.041-13.707-0.097-27.415-0.189-41.122-0.088-13.227-0.135-26.454-0.156-39.681-0.015-5.048-0.044-10.095-0.087-15.143-0.058-7.068-0.066-14.134-0.062-21.201-0.029-2.089-0.058-4.178-0.087-6.33 0.067-11.72 1.001-18.747 8.995-27.962 26.144-25.563 65.931-14.333 93.094 4.133z"></path>
<path fill="#f8fafc" d="M490.434 221.602c13.465 11.746 13.465 11.746 14.537 20.271 0.017 1.663 0.034 3.326 0.052 5.039 0.029 1.912 0.057 3.824 0.087 5.795 0.011 2.095 0.022 4.189 0.033 6.348 0.039 3.313 0.039 3.313 0.080 6.693 0.079 7.321 0.126 14.643 0.165 21.964 0.016 2.497 0.033 4.995 0.049 7.568 0.075 11.85 0.133 23.7 0.166 35.551 0.039 13.673 0.144 27.343 0.306 41.015 0.135 11.848 0.183 23.695 0.199 35.544 0.020 5.038 0.066 10.076 0.14 15.114 0.097 7.045 0.094 14.083 0.066 21.129 0.051 2.087 0.102 4.173 0.155 6.323-0.082 5.657-0.293 10.262-2.035 15.647-3.768 3.644-7.252 5.766-11.98 7.999-4.757 2.102-4.757 2.102-10.020 8.001 0-10.56 0-21.12 0-32-3.424 0.206-6.848 0.413-10.375 0.625-8.578 0.033-10.818-0.012-17.875-5.375-5.252-7.352-5.998-10.919-6.102-19.859-0.072-3.175-0.072-3.175-0.145-6.414-0.086-4.468-0.148-8.937-0.188-13.406-0.055-2.122-0.111-4.244-0.168-6.43-0.029-1.944-0.058-3.887-0.088-5.89-1.372-6.797-3.514-9.162-9.060-13.251-4.898-1.186-4.898-1.186-10.195-0.992-1.932-0.001-3.865-0.003-5.855-0.004-3.007 0.060-3.007 0.060-6.074 0.121-2.012-0.014-4.024-0.028-6.098-0.043-10.375-0.53-10.375-0.53-19.137 3.895-0.871 0.998-1.742 1.995-2.64 3.023-8.443 2.498-15.75 2.957-23.875-0.5-4.759-4.038-7.753-7.408-8.867-13.672-0.246-8.492-0.073-12.643 4.867-19.828 7.034-4.789 11.38-6 19.875-6 7.836 3.309 10.545 6.448 14 14 1.31-0.052 2.619-0.105 3.969-0.159 6.010-0.21 12.019-0.338 18.031-0.466 2.060-0.084 4.12-0.168 6.242-0.254 13.746-0.219 23.406 1.417 33.758 10.879 6.935 7.321 9.012 11.855 9.219 21.914 0.064 2.224 0.129 4.447 0.195 6.738 0.028 2.301 0.057 4.602 0.086 6.973 0.059 2.34 0.119 4.679 0.18 7.090 0.141 5.762 0.247 11.522 0.32 17.285 5.28 0.66 10.56 1.32 16 2 0-36.3 0-72.6 0-110-29.953-0.814-29.953-0.814-44 10-6.26 1.174-9.891 1.332-15.352-2.117-4.427-3.56-8.086-6.758-10.648-11.883-1.162-14.179-1.162-14.179 3.75-21.875 6.42-6.231 11.060-6.909 20.031-6.844 7.486 1.275 11.062 5.305 16.219 10.719 0 1.32 0 2.64 0 4 9.9 0 19.8 0 30 0-0.056-8.44-0.142-16.868-0.305-25.305-0.046-2.869-0.075-5.738-0.086-8.607-0.019-4.128-0.101-8.25-0.195-12.376-0.031-2.482-0.063-4.965-0.095-7.522-0.707-6.512-0.707-6.512-6.025-9.979-12.915-5.393-27.94-4.544-40.927 0.368-19.923 8.721-29.418 20.11-38.367 39.422-3.786 3.786-10.83 2.359-15.875 2.5-18.155 0.945-31.262 5.669-43.875 19-12.855 16.381-15.076 29.477-13.75 49.984-0.5 6.516-0.5 6.516-4.031 10.266-4.469 2.25-4.469 2.25-11.969 4.5-10.984 3.888-18.072 12.289-24.5 21.75-4.354 9.911-4.732 19.107-4.75 29.75-0.073 2.293-0.073 2.293-0.148 4.633-0.059 11.55 2.758 19.845 8.898 29.617 0.99 0.99 0.99 0.99 2 2 0.957 7.849 0.006 12.418-4 19-6.233 11.661-5.726 24.159-4 37 2.611 7.209 6.073 13.446 10 20 0.66 1.98 1.32 3.96 2 6 3.43 2.053 3.43 2.053 8 4 1.898 1.361 3.795 2.723 5.75 4.125 9.353 5.546 19.615 5.035 30.227 5.328 6.023 0.547 6.023 0.547 10.023 4.547 0.923 3.89 1.843 7.782 2.734 11.68 2.404 8.207 7.086 15.249 12.016 22.195 2.14 7.062-0.667 13.183-2.75 20.125-13.487-4.239-21.054-14.092-28-26-1.5-5.75-1.5-5.75-2-10-3.032 0.189-3.032 0.189-6.125 0.383-15.562-0.756-32.353-10.316-43.875-20.758-14.528-16.187-20.359-35.267-20.375-56.375-0.024-1.702-0.049-3.403-0.074-5.156-0.021-9.082 0.552-15.738 4.449-24.094-0.394-6.573-1.541-12.514-3.484-18.805-6.632-21.506-7.907-44.287 1.484-65.195 8.169-15.421 19.575-26.383 34-36 1.98 0 3.96 0 6 0-0.139-2.251-0.139-2.251-0.281-4.547-0.76-21.559 4.574-36.603 18.297-53.242 16.288-17.214 35.265-27.624 59.109-28.461 2.413 0.124 2.413 0.124 4.875 0.25 0.454-1.403 0.908-2.805 1.375-4.25 7.488-16.402 22.302-27.217 38.531-34.344 5.333-1.968 10.646-3.788 16.094-5.406 1.276-0.384 2.552-0.768 3.867-1.164 16.794-3.397 33.616-2.231 48.133 7.164z"></path>
<path fill="#914cfa" d="M656.434 605.602c0.66 0 1.32 0 2 0 1.846 18.13 2.219 36.165 2.25 54.375 0.009 2.183 0.018 4.367 0.027 6.616-0.070 38.459-0.070 38.459-8.277 53.009 0.66 1.32 1.32 2.64 2 4 2.64-5.28 5.28-10.56 8-16 2 6 2 6 0.063 10.906-12.159 22.21-27.131 37.701-52.063 45.094-13.86 2.558-27.936 3.402-42 4 0 3.96 0 7.92 0 12 1.905-0.093 3.81-0.186 5.773-0.281 2.509-0.072 5.017-0.144 7.602-0.219 2.483-0.093 4.965-0.186 7.523-0.281 8.241 0.907 11.317 2.986 17.102 8.781 3.1 6.201 2.58 11.158 2 18-3.591 5.507-6.105 9.053-12 12-5.184 0.238-10.316 0.357-15.502 0.386-1.6 0.016-3.201 0.033-4.85 0.050-5.31 0.050-10.62 0.083-15.93 0.112-1.813 0.011-3.626 0.021-5.493 0.032-9.597 0.053-19.194 0.092-28.791 0.121-9.909 0.033-19.817 0.123-29.725 0.225-7.622 0.067-15.243 0.090-22.864 0.102-3.652 0.013-7.304 0.044-10.956 0.092-5.118 0.063-10.233 0.063-15.352 0.049-1.503 0.033-3.006 0.066-4.554 0.099-11.539-0.136-16.198-3.351-23.983-11.266-2.853-5.706-2.621-9.669-2-16 3.6-5.4 6.168-9.084 12-12 5.103-0.143 10.149-0.186 15.25-0.125 2.119 0.014 2.119 0.014 4.281 0.027 3.49 0.024 6.979 0.059 10.469 0.098 0-4.62 0-9.24 0-14-10.56 0-21.12 0-32 0-1.32-2.64-2.64-5.28-4-8 7.594-4.98 15.319-4.586 24.076-4.574 2.421-0.020 2.421-0.020 4.891-0.041 3.501-0.027 7.002-0.045 10.502-0.055 5.55-0.017 11.1-0.058 16.65-0.105 11.793-0.096 23.587-0.162 35.381-0.224 13.643-0.071 27.285-0.156 40.927-0.272 5.45-0.040 10.901-0.057 16.351-0.073 3.37-0.026 6.74-0.053 10.11-0.081 2.251 0.003 2.251 0.003 4.548 0.006 17.802-0.207 35.578-4.257 48.915-16.611 13.261-14.255 19.68-27.899 20.059-47.549 0.040-1.841 0.080-3.682 0.121-5.579 0.033-1.961 0.067-3.922 0.101-5.942 0.062-3.042 0.062-3.042 0.126-6.145 0.13-6.459 0.249-12.919 0.366-19.378 0.086-4.387 0.174-8.773 0.262-13.16 0.214-10.738 0.417-21.476 0.613-32.215z"></path>
<path fill="#983bf5" d="M694.434 271.602c14.963 6.665 25.254 19.758 32.141 34.297 2.207 6.77 2.748 13.116 3.359 20.203 0.912 9.693 0.912 9.693 6.242 17.391 3.101 1.914 6.269 3.722 9.492 5.422 16.91 9.536 25.494 28.846 30.766 46.688 0.518 6.161 0.518 6.161 0.531 12.633 0.008 3.529 0.008 3.529 0.016 7.129-0.015 2.43-0.031 4.86-0.047 7.363 0.023 3.656 0.023 3.656 0.047 7.387-0.005 2.35-0.010 4.7-0.016 7.121-0.005 2.134-0.009 4.267-0.014 6.465-0.733 8.359-2.559 13.943-8.518 19.902 0.619 1.072 1.237 2.145 1.875 3.25 8.289 18.529 5.848 42.426-1.094 60.906-10.698 22.477-27.553 38.841-50.781 47.844-2.827 0.536-5.66 1.037-8.5 1.5-7.407 1.645-7.407 1.645-9.93 5.945-1.299 2.791-2.529 5.616-3.688 8.469-2.821 6.121-6.885 9.644-11.883 14.086 2.346 7.037 3.662 7.495 9.875 11 6.059 3.431 8.115 4.985 12.125 11 0.915 8.989 0.913 17.997 0.961 27.027 0.039 4.431 0.163 8.855 0.289 13.285 0.353 23.762 0.353 23.762-7.063 32.594-7.665 7.119-13.034 7.321-23.438 7.219-2.377-0.018-4.754-0.036-7.203-0.055-1.83-0.023-3.661-0.046-5.547-0.070 0-2.64 0-5.28 0-8-0.034-4.13-0.067-8.261-0.103-12.391-0.053-6.821-0.086-13.642-0.117-20.463-0.020-3.604-0.048-7.208-0.082-10.813-0.048-5.2-0.071-10.399-0.089-15.599-0.021-1.617-0.041-3.233-0.063-4.899-0.001-3.948 0.208-7.895 0.453-11.835 4.277-4.277 6.266-4.853 12-6-1.98-0.66-3.96-1.32-6-2 0-1.32 0-2.64 0-4-1.32-0.66-2.64-1.32-4-2 1.137-0.732 2.274-1.464 3.445-2.219 10.101-7.082 15.958-13.4 21.68-24.406 5.996-11.047 5.996-11.047 14.25-14.125 1.328-0.157 2.655-0.315 4.023-0.477 16.71-2.809 30.901-13.152 41.359-26.023 10.327-15.129 13.602-29.4 13.617-47.5 0.037-2.227 0.037-2.227 0.074-4.5 0.024-9.107-1.247-16.118-4.449-24.75 0.39-5.713 1.496-10.639 3.484-16.008 7.559-21.273 8.051-46.373-0.953-67.266-7.484-13.974-17.553-27.847-33.156-32.852-5.375-3.875-5.375-3.875-6.219-8.734-0.195-4.163-0.373-8.328-0.539-12.492-1.796-19.351-11.575-33.163-25.031-46.531-3.586-4.117-3.586-4.117-3.586-10.117z"></path>
<path fill="#fcfbfc" d="M466.434 771.602c30.36 0 60.72 0 92 0 0 5.94 0 11.88 0 18 3.829-0.070 3.829-0.070 7.734-0.141 3.339-0.038 6.677-0.074 10.016-0.109 1.684-0.034 3.367-0.067 5.102-0.102 1.611-0.013 3.223-0.026 4.883-0.039 1.487-0.021 2.975-0.042 4.507-0.063 3.759 0.454 3.759 0.454 7.759 4.454 0.5 5 0.5 5 0 10-5.009 5.009-8.026 4.486-14.861 4.542-2.269-0.012-2.269-0.012-4.584-0.025-1.594 0.007-3.187 0.014-4.83 0.021-5.284 0.018-10.567 0.006-15.85-0.008-3.662 0.003-7.323 0.007-10.985 0.012-7.68 0.006-15.36-0.003-23.041-0.021-9.86-0.023-19.72-0.010-29.579 0.014-7.563 0.014-15.126 0.010-22.689-0.001-3.636-0.003-7.273 0.001-10.909 0.010-5.076 0.010-10.151-0.005-15.227-0.028-2.269 0.012-2.269 0.012-4.584 0.025-10.404-0.085-10.404-0.085-14.861-4.542-0.5-5-0.5-5 0-10 4-4 4-4 7.759-4.454 1.487 0.021 2.975 0.042 4.507 0.063 2.417 0.019 2.417 0.019 4.883 0.039 2.525 0.050 2.525 0.050 5.102 0.102 2.548 0.027 2.548 0.027 5.148 0.055 4.201 0.047 8.401 0.119 12.602 0.195 0-5.94 0-11.88 0-18z"></path>
<path fill="#f9f8fb" d="M655.434 452.602c2.23-0.031 4.46-0.062 6.758-0.094 12.699 0.061 20.653 0.501 30.242 9.094 1.199 0.889 2.398 1.779 3.633 2.695 4.696 6.556 4.148 15.228 4.922 23.047 1.679 7.27 4.202 9.202 9.445 14.258 1.609 6.823 1.244 13.122 0 20-3.875 6.25-3.875 6.25-10 10-6.311 1.369-11.702 1.472-18 0-6-4.875-6-4.875-10-10-0.66-0.66-1.32-1.32-2-2-1.176-14.118-1.176-14.118 3.75-22 4.25-4 4.25-4 8.25-4-0.281-2.959-0.575-5.917-0.875-8.875-0.162-1.647-0.325-3.295-0.492-4.992-0.211-4.106-0.211-4.106-2.633-6.133-7.612-0.504-15.249-0.37-22.875-0.375-2.151-0.024-4.303-0.049-6.52-0.074-2.053-0.004-4.107-0.008-6.223-0.012-1.893-0.008-3.787-0.016-5.738-0.025-5.032 0.034-5.032 0.034-8.645 4.486-0.703 4.925-0.703 4.925-0.875 10.5-0.92 11.928-2.983 19.677-12 28-10.569 7.218-17.738 8.127-30.375 8-2.328 0.023-2.328 0.023-4.703 0.047-11.54-0.040-11.54-0.040-16.047-4.547 1.111-9.111 1.111-9.111 4-12 6.187-0.34 12.359-0.594 18.555-0.684 6.874-0.29 11.335-1.254 17.344-4.668 5.127-5.81 5.236-8.746 5.227-16.398 0.481-10.399 1.572-16.354 8.875-24.25 11.221-10.090 22.419-9.202 37-9z"></path>
<path fill="#f8f9fb" d="M348.434 419.602c1.748 1.642 3.496 3.285 5.297 4.977 7.803 6.872 15.452 6.298 25.453 6.148 13.547-0.14 23.8 1.129 35.25 8.875 7.257 7.815 10.22 12.69 10.281 23.227 0.039 1.837 0.077 3.674 0.117 5.566 0.067 3.864 0.104 7.729 0.109 11.594 0.245 9.224 0.473 14.179 5.93 21.855 5.913 3.995 9.017 5.047 16.063 5.258 9.389 0.389 9.389 0.389 11.5 2.5 0.375 4.875 0.375 4.875 0 10-5.071 5.071-7.204 4.708-14.25 4.875-11.311-0.237-19.699-2.716-27.75-10.875-8.274-11.504-9.061-20.436-9-34.375 0.31-12.899 0.31-12.899-3.875-24.789-7.895-4.369-15.25-3.997-24.125-3.836-1.709-0.031-3.419-0.062-5.18-0.094-10.097-0.083-10.097-0.083-18.461 5.023-1.109 1.343-2.217 2.686-3.359 4.070-6.028 2.203-11.624 2.684-18 2-6.259-3.298-10.796-7.592-14-14-1.353-11.728-1.353-11.728 2.094-17.516 8.131-9.901 13.18-11.757 25.906-10.484z"></path>
<path fill="#655cf8" d="M260.434 523.602c4.804 4.45 8.078 9.059 11.5 14.625 10.776 16.256 24.101 24.916 42.5 31.375 2.558 0.124 5.115 0.247 7.75 0.375 6.25 1.625 6.25 1.625 8.969 5.82 1.701 3.565 3.341 7.161 4.922 10.781 4.784 10.186 12.695 15.777 22.359 21.023 0.66-5.28 1.32-10.56 2-16 1.32 1.98 2.64 3.96 4 6-2.709 7.983-5.344 14.611-12 20 2.64 1.32 5.28 2.64 8 4 0 25.080 0 50.16 0 76-1.98-0.99-1.98-0.99-4-2 0-23.76 0-47.52 0-72-7.26 0.66-14.52 1.32-22 2-8.559 11.413-6.955 21.11-6.875 35-0.040 2.472-0.080 4.945-0.121 7.492 0.001 2.374 0.003 4.749 0.004 7.195-0.004 2.169-0.007 4.339-0.011 6.574 1.232 7.046 3.498 9.328 9.003 13.738 4.655 2.328 7.46 2.064 12.625 2.125 6.141 0.555 8.544 0.975 12.781 5.563 2.465 4.024 4.646 8.016 6.594 12.313-0.489-3.289-0.489-3.289-0.988-6.645-1.288-10.357-1.263-20.62-1.208-31.043 0.003-2.019 0.006-4.039 0.009-6.119 0.011-6.398 0.036-12.795 0.062-19.193 0.010-4.359 0.019-8.719 0.027-13.078 0.022-10.641 0.055-21.281 0.098-31.922 0.66 0 1.32 0 2 0 0.059 3.782 0.059 3.782 0.12 7.641 0.153 9.408 0.33 18.816 0.515 28.224 0.076 4.062 0.146 8.124 0.209 12.186 0.092 5.859 0.208 11.717 0.328 17.575 0.023 1.799 0.046 3.597 0.070 5.45 0.501 21.701 5.84 43.202 22.008 58.675 9.202 7.418 19.5 11.001 30.75 14.25 1.217 0.374 2.434 0.748 3.688 1.133 6.548 1.317 13.158 1.609 19.813 1.992 2.092 0.13 2.092 0.13 4.227 0.262 3.424 0.211 6.849 0.413 10.273 0.613 0 0.66 0 1.32 0 2-11.88 0-23.76 0-36 0 0 0.66 0 1.32 0 2 11.22 0.66 22.44 1.32 34 2 0 0.66 0 1.32 0 2-46.693 1.675-46.693 1.675-62-8-1.421-0.895-2.841-1.789-4.305-2.711-15.384-10.686-25.55-23.54-31.695-41.289 0-1.32 0-2.64 0-4-2.425 0.104-2.425 0.104-4.898 0.211-2.137 0.054-4.275 0.108-6.477 0.164-3.167 0.104-3.167 0.104-6.398 0.211-9.293-0.875-14.035-4.328-20.446-10.933-6.507-9.729-5.114-20.803-5.043-32.127 0.013-4.252-0.081-8.493-0.183-12.744-0.218-22.666-0.218-22.666 6.773-31.484 5.572-5.17 11.193-7.694 18.672-9.297-13.41-21.156-24.408-34.88-48.477-43.086-13.639-4.825-22.37-12.409-29.523-25.039-1.196-2.044-2.392-4.089-3.625-6.195-2.375-5.68-2.375-5.68-1.75-10.422 0.454-1.075 0.908-2.15 1.375-3.258z"></path>
<path fill="#4281f2" d="M466.434 209.602c0 0.66 0 1.32 0 2-1.751 0.36-1.751 0.36-3.538 0.728-31.066 6.13-31.066 6.13-58.462 21.272-1.815 1.196-3.63 2.392-5.5 3.625-4.597 4.004-4.597 4.004-6.703 8.656-4.466 8.494-7.166 12.888-16.602 15.867-3.941 0.681-7.883 1.361-11.839 1.948-18.392 2.743-32.85 12.266-45.356 25.904-8.097 11.31-15.953 23.452-16.031 37.711-0.094 6.434-0.344 12.054-1.969 18.289-4.096 3.611-8.029 5.334-13.031 7.492-13.551 6.839-21.951 20.582-27.586 34.227-6.968 21.574-3.924 43.107 2.617 64.281 2.645 12.613 2.645 12.613 0.047 18.203-2.927 8.29-2.549 16.076-2.422 24.797 0.002 2.525 0.002 2.525 0.004 5.102 0.058 8.21 0.321 15.894 2.371 23.898-2.97 1.98-2.97 1.98-6 4-4.625-11.029-4.599-21.13-4.5-32.875-0.015-1.832-0.031-3.664-0.047-5.551 0.024-8.403 0.411-15.114 2.813-23.238 2.051-7.494 1.161-9.901-2.016-16.836-9.915-27.071-6.054-57.643 5.75-83.5 7.197-11.181 16.095-19.854 29.18-23.406 1.591-0.856 3.181-1.712 4.82-2.594 1.655-5.382 1.655-5.382 1.875-11.75 3.201-25.949 16.262-43.959 36.125-60.25 14.187-9.359 30.845-15.107 48-14 0.454-1.403 0.908-2.805 1.375-4.25 8.903-19.502 29.371-31.053 48.82-38.461 12.388-2.751 25.199-1.852 37.805-1.289z"></path>
<path fill="#899cf4" d="M494.434 215.602c2.042 0.944 2.042 0.944 4.125 1.906 6.74 3.642 8.552 9.329 11.875 16.094 0 1.98 0 3.96 0 6 1.32 0 2.64 0 4 0 0.495-2.537 0.495-2.537 1-5.125 5.13-11.757 14.322-18.489 25.586-24.234 23.485-8.364 48.195-1.852 70.32 7.414 15.066 7.401 27.835 20.057 37.094 33.945 5.472 1.617 5.472 1.617 11.875 2.625 13.617 2.82 24.366 8.093 36.125 15.375-1.98 1.98-3.96 3.96-6 6-1.305-0.675-2.609-1.351-3.953-2.047-15.202-8.471-15.202-8.471-31.906-11.992-4.516-0.094-7.895-0.374-12.141-1.961-3.482-4.141-6.034-8.519-8.789-13.172-11.024-16.577-31.435-25.427-50.211-30.063-15.607-2.39-32.93-2.774-47 5.234-6.436 5.865-13.653 12.962-14.277 22.022-0.013 1.663-0.026 3.326-0.039 5.039-0.020 1.907-0.039 3.814-0.059 5.779-0.012 2.099-0.023 4.198-0.035 6.36-0.020 2.205-0.040 4.41-0.060 6.681-0.063 7.315-0.113 14.631-0.162 21.946-0.041 5.061-0.083 10.123-0.126 15.184-0.099 11.978-0.19 23.955-0.276 35.933-0.099 13.635-0.209 27.269-0.319 40.904-0.228 28.050-0.441 56.101-0.646 84.151-0.66 0-1.32 0-2 0-0.66-73.26-1.32-146.52-2-222-2.64 0-5.28 0-8 0-0.66 73.26-1.32 146.52-2 222-0.66 0-1.32 0-2 0-0.003-1.164-0.006-2.328-0.009-3.527-0.074-28.345-0.192-56.689-0.359-85.034-0.080-13.707-0.144-27.414-0.174-41.122-0.029-13.227-0.099-26.454-0.195-39.681-0.030-5.047-0.045-10.095-0.047-15.143-0.005-7.068-0.059-14.134-0.124-21.201 0.010-2.089 0.020-4.178 0.030-6.33-0.172-11.942-1.207-18.837-9.122-27.962-9.9-8.010-22.241-9.403-34.531-10.82-5.92-1.277-8.963-3.221-13.469-7.18 33.563-4.114 33.563-4.114 48 8z"></path>
<path fill="#735dfb" d="M458.434 613.602c8.866 4.275 14.251 8.835 18 18 1.441 12.764-0.312 19.682-8 30-8.055 5.807-15.743 7.29-25.5 6.977-8.030-1.743-13.357-6.765-18.5-12.977-4.588-7.744-5.647-15.158-4-24 8.575-16.92 19.757-20.114 38-18z"></path>
<path fill="#864bfa" d="M586.434 613.602c8.817 4.328 14.257 8.85 18 18 1.582 12.060-0.491 18.539-7.031 28.672-4.669 5.234-8.847 7.062-15.773 7.93-17.864 0.083-17.864 0.083-25.195-6.602-6.207-8.556-9.475-15.343-8.914-26.016 1.979-8.627 7.191-15.648 14.648-20.328 7.927-3.078 15.919-2.724 24.266-1.656z"></path>
<path fill="#f9f5fc" d="M668.434 623.602c22 0 22 0 27.304 3.208 5.594 9.944 3.916 21.555 3.821 32.667 0.048 2.551 0.095 5.102 0.145 7.73-0.029 18.199-0.029 18.199-5.090 27.152-6.18 3.242-6.18 3.242-26.18 3.242 0-24.42 0-48.84 0-74z"></path>
<path fill="#f7f7fc" d="M356.434 623.602c0 24.42 0 48.84 0 74-20 0-20 0-26.18-3.313-6.159-10.782-5.183-21.504-4.945-33.688-0.022-2.447-0.044-4.893-0.066-7.414 0.142-17.337 0.142-17.337 3.887-25.363 5.304-4.223 5.304-4.223 27.304-4.223z"></path>
<path fill="#963df4" d="M656.434 605.602c0.66 0 1.32 0 2 0 1.846 18.13 2.219 36.165 2.25 54.375 0.009 2.183 0.018 4.367 0.027 6.616-0.070 38.459-0.070 38.459-8.277 53.009 0.66 1.32 1.32 2.64 2 4 2.64-5.28 5.28-10.56 8-16 2 6 2 6 0.063 10.906-11.406 20.833-24.673 35.541-47.551 43.945-14.914 3.796-31.29 2.14-46.512 1.148 0-0.66 0-1.32 0-2 6.93-0.99 6.93-0.99 14-2-1.462-0.021-2.924-0.041-4.43-0.062-13.912-0.198-27.824-0.403-41.736-0.616-7.149-0.109-14.298-0.216-21.447-0.316-6.925-0.097-13.85-0.202-20.775-0.311-3.871-0.059-7.742-0.111-11.613-0.163-17.394-0.284-34.656-1.227-52-2.532 0-0.66 0-1.32 0-2 2.069-0.016 4.138-0.032 6.27-0.049 19.538-0.155 39.076-0.331 58.614-0.526 10.044-0.1 20.087-0.192 30.131-0.269 9.7-0.074 19.4-0.167 29.1-0.272 3.693-0.037 7.387-0.067 11.080-0.091 5.189-0.034 10.377-0.092 15.566-0.156 2.27-0.006 2.27-0.006 4.586-0.013 17.833-0.277 35.635-4.271 49.004-16.656 13.261-14.255 19.68-27.899 20.059-47.549 0.040-1.841 0.080-3.682 0.121-5.579 0.033-1.961 0.067-3.922 0.101-5.942 0.062-3.042 0.062-3.042 0.126-6.145 0.13-6.459 0.249-12.919 0.366-19.378 0.086-4.387 0.174-8.773 0.262-13.16 0.214-10.738 0.417-21.476 0.613-32.215z"></path>
<path fill="#a552f6" d="M558.434 771.602c1.98 0 3.96 0 6 0 0 2.64 0 5.28 0 8 2.194-0.093 4.388-0.186 6.648-0.281 2.909-0.075 5.818-0.148 8.727-0.219 1.442-0.067 2.885-0.134 4.371-0.203 7.813-0.143 11.393 0.152 18.168 4.484 5.277 5.449 5.99 7.197 6.711 14.844-0.723 8.526-2.665 11.415-8.625 17.375-6.235 3.118-12.85 2.259-19.692 2.227-1.62 0-3.239 0.001-4.908 0.001-5.368-0.001-10.735-0.017-16.103-0.033-3.716-0.004-7.432-0.007-11.148-0.009-9.792-0.008-19.583-0.027-29.375-0.049-9.987-0.020-19.974-0.030-29.962-0.040-19.604-0.021-39.208-0.056-58.813-0.098 0-0.66 0-1.32 0-2 7.92-0.99 7.92-0.99 16-2 0-0.66 0-1.32 0-2-4.62-0.66-9.24-1.32-14-2 0-0.66 0-1.32 0-2 2.025-0.021 4.050-0.041 6.137-0.062 19.042-0.195 38.084-0.401 57.126-0.616 9.791-0.111 19.581-0.217 29.372-0.316 9.441-0.095 18.881-0.2 28.322-0.311 3.61-0.041 7.22-0.078 10.83-0.112 5.039-0.048 10.077-0.108 15.115-0.171 1.508-0.012 3.015-0.023 4.569-0.035 6.844 0.507 6.844 0.507 12.53-2.376 0.333-5 0.333-5 0-10-3.028-3.028-5.849-2.426-10.070-2.633-1.618-0.084-3.236-0.168-4.902-0.254-2.55-0.118-2.55-0.118-5.152-0.238-1.708-0.086-3.416-0.173-5.176-0.262-4.233-0.213-8.466-0.414-12.699-0.613 0-5.94 0-11.88 0-18z"></path>
<path fill="#7051f8" d="M366.434 607.602c0.66 0 1.32 0 2 0 0.040 2.521 0.079 5.043 0.12 7.641 0.153 9.408 0.33 18.816 0.515 28.224 0.076 4.062 0.146 8.124 0.209 12.186 0.092 5.859 0.208 11.717 0.328 17.575 0.023 1.799 0.046 3.597 0.070 5.45 0.501 21.701 5.84 43.202 22.008 58.675 9.202 7.418 19.5 11.001 30.75 14.25 1.217 0.374 2.434 0.748 3.688 1.133 6.548 1.317 13.158 1.609 19.813 1.992 2.092 0.13 2.092 0.13 4.227 0.262 3.424 0.211 6.849 0.413 10.273 0.613 0 0.66 0 1.32 0 2-11.88 0-23.76 0-36 0 0 0.66 0 1.32 0 2 11.22 0.66 22.44 1.32 34 2 0 0.66 0 1.32 0 2-46.693 1.675-46.693 1.675-62-8-1.421-0.895-2.841-1.789-4.305-2.711-15.384-10.686-25.55-23.54-31.695-41.289 0-1.32 0-2.64 0-4-2.425 0.104-2.425 0.104-4.898 0.211-2.137 0.054-4.275 0.108-6.477 0.164-3.167 0.104-3.167 0.104-6.398 0.211-8.968-0.844-14.156-4.087-19.852-10.961-0.784-1.196-1.567-2.393-2.375-3.625 1.32-2.64 2.64-5.28 4-8 2.995 2.539 5.99 5.078 8.984 7.617 5.44 4.298 8.894 4.428 15.641 4.508 6.141 0.555 8.544 0.975 12.781 5.563 2.465 4.024 4.646 8.016 6.594 12.313-0.326-2.193-0.652-4.385-0.988-6.645-1.288-10.357-1.263-20.62-1.208-31.043 0.003-2.019 0.006-4.039 0.009-6.119 0.011-6.398 0.036-12.795 0.062-19.193 0.010-4.359 0.019-8.719 0.027-13.078 0.022-10.641 0.055-21.281 0.098-31.922z"></path>
<path fill="#9734f4" d="M680.434 607.602c4.555 2.148 4.555 2.148 9.875 5.375 1.751 1.039 3.501 2.078 5.305 3.148 5.067 3.655 7.652 6.112 10.82 11.477 1.199 9.029 1.115 18.080 1.112 27.178 0.013 4.414 0.122 8.819 0.236 13.232 0.28 23.613 0.28 23.613-7.168 32.488-7.66 7.13-13.023 7.329-23.43 7.227-2.377-0.018-4.754-0.036-7.203-0.055-1.83-0.023-3.661-0.046-5.547-0.070 0-2.64 0-5.28 0-8-0.034-4.13-0.067-8.261-0.103-12.391-0.053-6.821-0.086-13.642-0.117-20.463-0.020-3.604-0.048-7.208-0.082-10.813-0.048-5.2-0.071-10.399-0.089-15.599-0.021-1.617-0.041-3.233-0.063-4.899-0.001-3.948 0.208-7.895 0.453-11.835 4.277-4.277 6.266-4.853 12-6 0-2.64 0-5.28 0-8 1.32-0.66 2.64-1.32 4-2zM668.434 623.602c0 24.42 0 48.84 0 74 18.211 1.549 18.211 1.549 26.18-3.242 6.273-11.096 5.179-22.379 4.945-34.883 0.022-2.559 0.044-5.118 0.066-7.754 0.302-12.961 0.302-12.961-3.887-24.914-7.409-5.105-7.409-5.105-27.304-3.208z"></path>
<path fill="#844bf9" d="M470.434 703.602c11.926-0.049 23.852-0.086 35.779-0.11 4.061-0.010 8.121-0.024 12.182-0.041 5.823-0.024 11.646-0.036 17.469-0.044 1.827-0.010 3.654-0.021 5.537-0.031 4.345 0 8.69 0.102 13.034 0.227 2 2 2 2 2.375 6.875-0.375 5.125-0.375 5.125-4.375 9.125-5.979 0.4-11.769 0.559-17.75 0.531-2.641 0.006-2.641 0.006-5.335 0.012-3.726 0.003-7.451-0.005-11.177-0.021-5.715-0.021-11.429 0-17.145 0.025-3.615-0.003-7.229-0.008-10.844-0.016-1.717 0.008-3.433 0.016-5.202 0.025-12.088-0.096-12.088-0.096-16.548-4.556 0.75-6.25 0.75-6.25 2-12z"></path>
<path fill="#2da0f1" d="M466.434 209.602c0 0.66 0 1.32 0 2-1.751 0.36-1.751 0.36-3.538 0.728-31.066 6.13-31.066 6.13-58.462 21.272-1.815 1.196-3.63 2.392-5.5 3.625-4.597 4.004-4.597 4.004-6.703 8.656-4.466 8.494-7.166 12.888-16.602 15.867-3.941 0.681-7.883 1.361-11.839 1.948-18.404 2.744-32.833 12.271-45.356 25.904-8.094 11.207-13.643 22.928-18 36-1.32-0.66-2.64-1.32-4-2 0.811-21.91 13.296-36.88 28.711-51.602 14.815-12.321 33.836-19.654 53.289-18.398 0.454-1.403 0.908-2.805 1.375-4.25 8.903-19.502 29.371-31.053 48.82-38.461 12.388-2.751 25.199-1.852 37.805-1.289z"></path>
<path fill="#4875f1" d="M611.34 217.657c15.066 7.401 27.835 20.057 37.094 33.945 5.472 1.617 5.472 1.617 11.875 2.625 13.617 2.82 24.366 8.093 36.125 15.375-1.98 1.98-3.96 3.96-6 6-1.305-0.675-2.609-1.351-3.953-2.047-15.202-8.471-15.202-8.471-31.906-11.992-4.516-0.094-7.895-0.374-12.141-1.961-3.482-4.141-6.034-8.519-8.789-13.172-11.024-16.577-31.435-25.427-50.211-30.063-15.784-2.417-32.667-2.529-47 5.234-4.348 3.747-8.074 7.793-12 12-1.98 0-3.96 0-6 0-0.66 1.32-1.32 2.64-2 4 0.996-8.278 2.901-11.881 9.25-17.25 1.305-1.14 2.609-2.279 3.953-3.453 25.155-17.289 55.518-10.208 81.703 0.758z"></path>
<path fill="#745af5" d="M694.434 271.602c14.963 6.665 25.254 19.758 32.141 34.297 2.207 6.77 2.748 13.116 3.359 20.203 0.912 9.693 0.912 9.693 6.242 17.391 3.101 1.914 6.269 3.722 9.492 5.422 13.067 7.369 21.303 21.070 26.766 34.688 0.724 1.774 1.449 3.548 2.195 5.375 2.263 8.309 2.243 15.817 2.055 24.375-0.018 1.567-0.036 3.135-0.055 4.75-0.047 3.834-0.118 7.667-0.195 11.5-5.255-5.255-4.897-8.553-5.75-15.875-3.303-23.019-10.533-42.12-28.25-57.75-5.758-4.68-5.758-4.68-12.625-6.5-5.375-3.875-5.375-3.875-6.219-8.734-0.195-4.163-0.373-8.328-0.539-12.492-1.796-19.351-11.575-33.163-25.031-46.531-3.586-4.117-3.586-4.117-3.586-10.117z"></path>
<path fill="#875bf6" d="M443.684 779.477c2.119 0.014 2.119 0.014 4.281 0.027 3.49 0.024 6.979 0.059 10.469 0.098-0.66 1.98-1.32 3.96-2 6 4.95 0.99 4.95 0.99 10 2 0 0.66 0 1.32 0 2-3.863 0.182-3.863 0.182-7.805 0.367-3.357 0.169-6.714 0.338-10.070 0.508-2.55 0.118-2.55 0.118-5.152 0.238-1.618 0.084-3.236 0.168-4.902 0.254-1.498 0.073-2.995 0.147-4.539 0.222-3.581 0.046-3.581 0.046-5.532 2.411-0.5 4.916-0.5 4.916 0 10 5.701 5.701 11.32 4.615 18.958 4.638 1.542 0.020 3.083 0.040 4.672 0.061 5.108 0.062 10.215 0.096 15.323 0.13 3.537 0.037 7.073 0.077 10.61 0.117 9.318 0.103 18.636 0.182 27.954 0.256 9.505 0.080 19.009 0.182 28.514 0.283 18.656 0.194 37.312 0.362 55.969 0.516 0 0.66 0 1.32 0 2-34.65 0.99-34.65 0.99-70 2 0 0.66 0 1.32 0 2-13.203 0.305-26.406 0.515-39.612 0.659-4.491 0.060-8.982 0.142-13.473 0.246-6.459 0.146-12.916 0.214-19.376 0.267-2.005 0.062-4.009 0.124-6.074 0.188-13.571 0.007-13.571 0.007-18.98-3.896-4.378-5.003-6.41-9.057-7.61-15.589 1.385-7.231 4.037-10.637 9.125-15.875 6.131-3.065 12.535-2.206 19.25-2.125z"></path>
<path fill="#4976f0" d="M260.434 523.602c4.804 4.45 8.078 9.059 11.5 14.625 10.776 16.256 24.101 24.916 42.5 31.375 2.558 0.124 5.115 0.247 7.75 0.375 6.25 1.625 6.25 1.625 8.969 5.75 1.702 3.53 3.329 7.097 4.883 10.695 3.185 6.878 7.289 11.633 12.398 17.18-1.32 1.98-2.64 3.96-4 6 1.98 0.66 3.96 1.32 6 2-1.98 0.66-3.96 1.32-6 2-0.62-0.957-1.24-1.913-1.879-2.899-13.624-20.543-24.973-34.306-48.668-42.257-13.759-5.25-22.12-12.021-29.453-24.969-1.196-2.044-2.392-4.089-3.625-6.195-2.375-5.68-2.375-5.68-1.75-10.422 0.454-1.075 0.908-2.15 1.375-3.258z"></path>
<path fill="#933df4" d="M770.434 407.602c0.66 0 1.32 0 2 0 0.121 1.137 0.242 2.274 0.367 3.445 0.168 1.544 0.335 3.089 0.508 4.68 0.178 1.65 0.356 3.3 0.539 5 0.483 4.018 1.137 8.014 1.836 12 1.092 10.010 1.125 19.075-4.375 27.875-0.949 0.99-1.898 1.98-2.875 3 0.619 1.072 1.237 2.145 1.875 3.25 8.653 19.342 5.396 43.577-1.875 62.75-3.125-2.25-3.125-2.25-6-6 0.602-5.313 0.602-5.313 2-12 0.362-5.667 0.37-11.323 0.375-17 0.024-1.467 0.049-2.934 0.074-4.445 0.024-9.036-1.281-15.987-4.449-24.555 0.393-5.769 1.607-10.807 3.414-16.289 4.553-13.882 5.924-27.14 6.586-41.711z"></path>
<path fill="#5569f4" d="M580.434 235.602c18.259 4.884 32.868 14.193 44 29.5 2 4.5 2 4.5 2 10.5-1.32 0-2.64 0-4 0-0.99-2.392-1.98-4.785-3-7.25-6.182-12.299-16.35-19.175-28.875-24.375-14.001-4.612-26.275-5.745-40.125-0.375-4.806 3.906-4.806 3.906-4.32 11.188 0.049 3.271 0.116 6.542 0.195 9.813 0.268 20.566-0.227 41.072-0.875 61.625-0.048 1.552-0.096 3.105-0.146 4.704-0.276 8.891-0.564 17.781-0.854 26.671 15.18 0 30.36 0 46 0 0 0.66 0 1.32 0 2-15.84 0-31.68 0-48 0-0.226-14.986-0.409-29.972-0.518-44.959-0.052-6.96-0.123-13.918-0.236-20.877-0.13-8.003-0.178-16.004-0.222-24.008-0.052-2.496-0.103-4.992-0.156-7.564-0.001-3.483-0.001-3.483-0.002-7.036-0.022-2.043-0.044-4.086-0.067-6.191 1.203-5.366 1.203-5.366 5.882-10.017 10.238-6.444 21.687-4.746 33.32-3.349z"></path>
<path fill="#8447f5" d="M698.434 467.602c1.32 0.66 2.64 1.32 4 2 0 7.26 0 14.52 0 22 2.64 1.32 5.28 2.64 8 4 4.616 6.001 4.835 12.494 4.641 19.938-1.291 8.185-5.792 13.901-12.266 18.813-9.419 2.691-16.157 2.401-24.875-2.125-5.715-4.806-8.813-7.669-11.5-14.625-0.565-11.59 2.866-17.083 10-26 0.66-5.28 1.32-10.56 2-16-13.86-0.66-27.72-1.32-42-2 0-0.66 0-1.32 0-2 6.917-0.116 13.833-0.187 20.75-0.25 1.97-0.034 3.939-0.067 5.969-0.102 2.823-0.019 2.823-0.019 5.703-0.039 2.608-0.031 2.608-0.031 5.269-0.063 4.31 0.454 4.31 0.454 8.31 4.454 1.139 6.105 1.1 11.891 0 18-3.292 3.374-6.625 6.709-10 10-1.506 5.64-1.38 10.344 0 16 3.54 6.373 3.54 6.373 10 10 8.559 1.721 15.398 1.396 23.125-2.75 4.38-7.999 4.813-16.359 2.875-25.25-1.31-1.248-2.619-2.496-3.969-3.781-5.511-5.768-5.217-9.868-5.531-17.719-0.113-2.341-0.227-4.682-0.344-7.094-0.052-1.784-0.103-3.568-0.156-5.406z"></path>
<path fill="#6063f1" d="M616.434 223.602c8.492 0.987 12.465 5.792 18.25 11.75 1.738 1.769 3.475 3.537 5.266 5.359 4.484 4.891 4.484 4.891 8.484 10.891 5.472 1.617 5.472 1.617 11.875 2.625 13.617 2.82 24.366 8.093 36.125 15.375-1.98 1.98-3.96 3.96-6 6-1.957-1.013-1.957-1.013-3.953-2.047-15.202-8.471-15.202-8.471-31.906-11.992-4.522-0.094-7.891-0.367-12.141-1.961-3.523-4.175-6.095-8.54-8.828-13.266-4.974-7.425-11.751-11.931-19.172-16.734 0.66-1.98 1.32-3.96 2-6z"></path>
<path fill="#5a5df4" d="M328.434 617.602c4 2 4 2 8 6-1.949 2.086-1.949 2.086-3.937 4.214-4.771 6.795-5.057 10.159-5.071 18.364-0.037 2.377-0.075 4.754-0.113 7.203-0.001 2.465-0.003 4.929-0.004 7.469-0.018 4.901-0.061 9.802-0.133 14.703-0.001 2.167-0.003 4.334-0.004 6.567-0.738 5.479-0.738 5.479-3.784 9.232-0.975 0.742-1.949 1.483-2.954 2.247-5.335-5.335-2.637-20.332-2.7-27.981-0.033-2.912-0.087-5.823-0.164-8.734-0.11-4.208-0.153-8.412-0.183-12.621-0.040-2.522-0.079-5.044-0.12-7.642 1.524-9.171 4.774-12.436 11.167-19.022z"></path>
<path fill="#8a31fa" d="M422.434 809.602c4.95 0.99 4.95 0.99 10 2 0-0.66 0-1.32 0-2 52.14 0 104.28 0 158 0 0 0.66 0 1.32 0 2-34.65 0.99-34.65 0.99-70 2 0 0.66 0 1.32 0 2-13.314 0.152-26.627 0.257-39.941 0.33-4.532 0.030-9.064 0.071-13.596 0.123-6.503 0.073-13.006 0.107-19.51 0.133-3.053 0.046-3.053 0.046-6.168 0.094-1.882 0-3.763 0.001-5.702 0.001-1.661 0.013-3.322 0.027-5.033 0.040-2.005-0.357-2.005-0.357-4.050-0.722-1.32-1.98-2.64-3.96-4-6z"></path>
<path fill="#9930f3" d="M700.434 623.602c1.98 1.32 3.96 2.64 6 4 0.535 4.967 0.697 9.429 0.586 14.391-0.008 1.415-0.017 2.83-0.026 4.288-0.034 4.525-0.109 9.048-0.185 13.572-0.030 3.065-0.057 6.13-0.082 9.195-0.066 7.519-0.17 15.036-0.293 22.555-2.97 0.99-2.97 0.99-6 2-4.867-7.3-4.515-10.877-4.531-19.57-0.004-1.314-0.008-2.628-0.012-3.981-0.003-2.772 0.005-5.544 0.021-8.316 0.021-4.249 0-8.497-0.025-12.746 0.003-2.694 0.008-5.388 0.016-8.082 0.005-2.455 0.009-4.909 0.014-7.438 0.518-5.867 0.518-5.867 4.518-9.867z"></path>
<path fill="#34a0f3" d="M294.434 319.602c6 6 6 6 6.586 10.961-0.070 1.787-0.139 3.573-0.211 5.414-0.054 1.802-0.108 3.604-0.164 5.461-0.070 1.374-0.139 2.748-0.211 4.164-1.137 0.536-2.274 1.072-3.445 1.625-12.249 6.216-20.191 13.537-28.555 24.375-2.64-1.32-5.28-2.64-8-4-0.66 1.32-1.32 2.64-2 4 2.092-11.333 9.935-19.125 19.125-25.625 4.884-2.38 9.782-4.483 14.875-6.375 0.66-6.6 1.32-13.2 2-20z"></path>
<path fill="#359ef4" d="M260.434 367.602c1.98 0.66 3.96 1.32 6 2-0.536 1.567-1.072 3.135-1.625 4.75-0.784 2.392-1.567 4.785-2.375 7.25-0.758 1.972-0.758 1.972-1.531 3.984-5.956 16.875-5.909 34.306-6.469 52.016-1.98-0.66-3.96-1.32-6-2-1.782-47.327-1.782-47.327 12-68z"></path>
<path fill="#7548f7" d="M758.434 363.602c10.681 8.604 15.196 18.652 18 32 0.875 11.327 0.478 22.663 0 34-5.255-5.255-4.897-8.553-5.75-15.875-1.541-11.158-4.363-20.766-8.477-31.211-2.293-6.353-3.177-12.208-3.773-18.914z"></path>
<path fill="#348df3" d="M322.434 329.602c0.66 0 1.32 0 2 0 0.555 4.118 1.042 8.245 1.5 12.375 0.278 2.297 0.557 4.594 0.844 6.961-0.424 8.229-2.461 11.027-8.344 16.664-3.886 1.36-7.773 2.716-11.68 4.016-10.661 4.897-19.518 14.641-24.195 25.359-3.48 11.131-3.613 23.052-4.125 34.625-0.66 0-1.32 0-2 0-0.822-23.657-0.253-38.382 16.484-56.555 7.887-7.729 17.465-11.307 27.516-15.445 0.66-9.24 1.32-18.48 2-28z"></path>
<path fill="#757cf0" d="M328.434 571.602c0.909 1.957 0.909 1.957 1.836 3.953 5.084 10.606 10.192 19.391 18.164 28.047-1.32 1.98-2.64 3.96-4 6 1.98 0.66 3.96 1.32 6 2-1.98 0.66-3.96 1.32-6 2-0.767-1.009-1.533-2.018-2.323-3.058-3.472-4.567-6.95-9.129-10.427-13.692-1.207-1.588-2.413-3.176-3.656-4.813-1.16-1.521-2.32-3.042-3.516-4.609-1.068-1.403-2.137-2.807-3.237-4.253-2.889-3.775-2.889-3.775-6.841-7.575 6-4 6-4 14-4z"></path>
<path fill="#3a91f4" d="M456.434 234.977c2.392-0.034 4.785-0.067 7.25-0.102 7.178 0.773 10.944 2.559 16.75 6.727-0.66 1.98-1.32 3.96-2 6-0.696-0.972-1.392-1.944-2.109-2.945-8.724-6.85-23.288-4.014-33.891-3.055-13.64 3.307-24.615 11.755-34 22-3.979 6.433-3.979 6.433-6 12-1.773-4.836-2.417-7.069-0.273-11.859 13.172-17.68 32.091-28.694 54.273-28.766z"></path>
<path fill="#a860f2" d="M680.434 607.602c4.695 2.289 4.695 2.289 10.125 5.625 1.797 1.085 3.594 2.171 5.445 3.289 4.43 3.086 4.43 3.086 6.43 7.086-1.98 2.97-1.98 2.97-4 6-1.083-0.634-2.166-1.268-3.281-1.922-5.55-2.444-10.183-2.897-16.219-3.328-1.97-0.15-3.939-0.299-5.969-0.453-1.495-0.098-2.991-0.196-4.531-0.297 0-1.32 0-2.64 0-4 2.64-0.66 5.28-1.32 8-2 0-2.64 0-5.28 0-8 1.32-0.66 2.64-1.32 4-2z"></path>
<path fill="#3584f3" d="M254.434 429.602c0.66 0 1.32 0 2 0 9.915 34.486 9.915 34.486 2 50-1.32-0.66-2.64-1.32-4-2 0.214-1.114 0.428-2.228 0.648-3.375 1.925-12.256 0.237-19.292-4.648-30.625 0-1.98 0-3.96 0-6 1.32 0 2.64 0 4 0 0-2.64 0-5.28 0-8z"></path>
<path fill="#9734f4" d="M558.434 771.602c1.98 0 3.96 0 6 0 0 2.64 0 5.28 0 8 1.328-0.023 2.655-0.046 4.023-0.070 17.541-0.179 17.541-0.179 25.977 2.070-0.66 1.98-1.32 3.96-2 6-11.22 0-22.44 0-34 0 0-5.28 0-10.56 0-16z"></path>
<path fill="#3194f6" d="M394.434 283.602c0 0.66 0 1.32 0 2-1.836 0.075-3.671 0.15-5.563 0.227-24.011 1.286-35.713 3.73-52.477 21.266-3.55 4.040-6.814 8.15-9.961 12.508 1.63-11.886 7.642-17.839 16-26 1.593-1.609 1.593-1.609 3.219-3.25 13.454-10.862 32.528-7.531 48.781-6.75z"></path>
<path fill="#2896f3" d="M466.434 209.602c0 0.66 0 1.32 0 2-6.791 1.628-13.583 3.252-20.375 4.875-1.919 0.46-3.839 0.92-5.816 1.395-1.863 0.445-3.725 0.889-5.645 1.348-2.561 0.613-2.561 0.613-5.173 1.238-4.981 1.143-9.975 2.167-14.991 3.145 1-3.625 1-3.625 4-8 14.961-8.378 31.367-6.545 48-6z"></path>
<path fill="#536aef" d="M282.434 555.602c7.142 2.8 14.146 5.816 21.125 9 1.859 0.846 3.718 1.691 5.633 2.563 4.456 2.072 8.861 4.211 13.242 6.438 0 0.66 0 1.32 0 2-14.446 1.97-25.913-4.462-38-12-1.32-1.98-2.64-3.96-4-6 0.66-0.66 1.32-1.32 2-2z"></path>
<path fill="#8052f7" d="M420.434 785.602c1.32 0 2.64 0 4 0 0.329 1.775 0.329 1.775 0.664 3.586 1.854 9.241 3.783 16.589 9.336 24.414-5.851-1.254-10.825-2.966-16-6-2.771-5.542-2.375-9.867-2-16 1.32-1.98 2.64-3.96 4-6z"></path>
<path fill="#5a73f3" d="M616.434 223.602c8.471 1.012 12.719 5.787 18.625 11.625 2.711 2.618 2.711 2.618 5.477 5.289 3.898 5.086 3.898 5.086 3.484 9.734-0.523 1.106-1.047 2.212-1.586 3.352-1.361-1.402-2.722-2.805-4.125-4.25-5.332-5.348-10.994-10.229-16.773-15.086-2.463-2.115-4.806-4.369-7.102-6.664 0.66-1.32 1.32-2.64 2-4z"></path>
<path fill="#407df5" d="M548.434 213.602c-1.152 0.838-2.305 1.676-3.492 2.539-5.896 4.526-11.255 9.559-16.703 14.609-3.805 2.852-3.805 2.852-9.805 2.852-0.66 1.32-1.32 2.64-2 4 0.966-8.62 3.204-12.047 9.875-17.5 1.421-1.186 2.841-2.372 4.305-3.594 6.798-5.172 9.628-4.847 17.82-2.906z"></path>
<path fill="#b089f4" d="M770.434 407.602c0.66 0 1.32 0 2 0 0.121 1.137 0.242 2.274 0.367 3.445 0.168 1.544 0.335 3.089 0.508 4.68 0.178 1.65 0.356 3.3 0.539 5 0.483 4.018 1.137 8.014 1.836 12 0.994 9.112 0.935 18.506-3.25 26.875-1.32 0-2.64 0-4 0 0.586-3.841 1.172-7.682 1.758-11.523 0.441-4.543 0.441-4.543-0.758-9.164-1.235-6.559-0.728-12.3-0.125-18.938 0.204-2.323 0.407-4.646 0.617-7.039 0.168-1.761 0.335-3.522 0.508-5.336z"></path>
<path fill="#2c9fef" d="M272.434 349.602c1.98 0.66 3.96 1.32 6 2-0.828 9.665-4.928 13.654-12 20-1.98-1.32-3.96-2.64-6-4-0.66 1.32-1.32 2.64-2 4 1.186-6.784 3.535-10.422 8.125-15.5 1.096-1.227 2.191-2.454 3.32-3.719 0.843-0.918 1.686-1.836 2.555-2.781z"></path>
<path fill="#5e5bf7" d="M464.434 451.602c5.94 0 11.88 0 18 0 0.66 9.24 1.32 18.48 2 28 1.526-1.609 3.053-3.217 4.625-4.875 5.375-5.125 5.375-5.125 11.375-7.125-3.033 9.1-10.338 13.001-18 18-2-2-2-2-2.195-8.758 0.013-2.789 0.037-5.578 0.070-8.367 0.009-1.422 0.018-2.844 0.027-4.309 0.024-3.522 0.060-7.044 0.098-10.566-5.28 0-10.56 0-16 0 0-0.66 0-1.32 0-2z"></path>
<path fill="#8c40f7" d="M766.434 441.602c1.98 0.66 3.96 1.32 6 2-0.433 2.537-0.433 2.537-0.875 5.125-1.137 6.947-2.149 13.904-3.125 20.875-1.98 0-3.96 0-6 0-3.112-11.315-0.486-17.593 4-28z"></path>
<path fill="#aa57f1" d="M584.434 779.602c5.75-0.25 5.75-0.25 12 0 4 4 4 4 6 10-1.98 1.32-3.96 2.64-6 4-0.66-0.66-1.32-1.32-2-2-2.68-0.312-5.375-0.501-8.070-0.633-2.427-0.126-2.427-0.126-4.902-0.254-1.7-0.079-3.401-0.157-5.152-0.238-1.708-0.086-3.416-0.173-5.176-0.262-4.233-0.213-8.466-0.414-12.699-0.613 0-0.66 0-1.32 0-2 11.88-0.99 11.88-0.99 24-2 0.66-1.98 1.32-3.96 2-6z"></path>
<path fill="#4ba1f2" d="M478.434 205.602c4 8 4 8 4 12-4.503-0.512-9.003-1.061-13.5-1.625-2.506-0.302-5.012-0.603-7.594-0.914-6.906-1.461-6.906-1.461-14.906-7.461 15.84-0.99 15.84-0.99 32-2z"></path>
<path fill="#239af0" d="M260.434 367.602c1.98 0.66 3.96 1.32 6 2-2.836 8.945-6.226 17.423-10 26-1.32-0.66-2.64-1.32-4-2 0.995-9.946 3.106-17.276 8-26z"></path>
<path fill="#578af4" d="M564.809 207.477c1.499 0.009 2.998 0.018 4.543 0.027 3.694 0.024 7.388 0.059 11.082 0.098-3.763 4.972-5.833 5.966-12.063 7.234-3.434 0.255-3.434 0.255-6.938 0.516-2.289 0.201-4.579 0.402-6.938 0.609-6.063-0.359-6.063-0.359-9.875-3.344-0.722-0.995-1.444-1.99-2.188-3.016 7.526-2.509 14.544-2.214 22.375-2.125z"></path>
<path fill="#6e66f8" d="M322.434 685.602c6.674 2.762 10.446 5.64 14 12-0.625 4.5-0.625 4.5-2 8-6.674-2.762-10.446-5.64-14-12 0.625-4.5 0.625-4.5 2-8z"></path>
<path fill="#4b71f8" d="M560.434 237.602c-1.196 0.536-2.393 1.072-3.625 1.625-4.538 2.463-7.162 4.349-10.375 8.375-0.825 4.635-0.825 4.635-0.586 9.773 0.019 1.876 0.039 3.751 0.059 5.684 0.050 1.953 0.101 3.906 0.152 5.918 0.027 1.976 0.054 3.952 0.082 5.988 0.071 4.88 0.169 9.758 0.293 14.637-1.32 0-2.64 0-4 0-0.174-7.541-0.281-15.082-0.375-22.625-0.050-2.144-0.101-4.287-0.152-6.496-0.019-2.056-0.039-4.112-0.059-6.23-0.031-1.896-0.063-3.791-0.095-5.745 0.681-4.904 0.681-4.904 3.319-8.546 5.017-3.519 9.412-2.755 15.362-2.358z"></path>
<path fill="#773cf5" d="M772.434 393.602c1.32 0.66 2.64 1.32 4 2 0 11.22 0 22.44 0 34-5.666-5.666-4.986-11.515-5.375-19.125-0.094-1.396-0.188-2.792-0.285-4.23-0.21-3.544-0.285-7.095-0.34-10.645 0.66-0.66 1.32-1.32 2-2z"></path>
<path fill="#2498f2" d="M394.434 233.602c1.32 1.32 2.64 2.64 4 4-2.618 3.339-5.244 6.671-7.875 10-1.462 1.856-2.924 3.712-4.43 5.625-1.219 1.444-2.439 2.887-3.695 4.375-0.66 0-1.32 0-2 0 1.5-13.25 1.5-13.25 6-20 4.25-2.375 4.25-2.375 8-4z"></path>
<path fill="#6355fc" d="M334.434 697.602c7.92 0.66 15.84 1.32 24 2 0.66 1.98 1.32 3.96 2 6-8.58 0-17.16 0-26 0 0-2.64 0-5.28 0-8z"></path>
<path fill="#823ef6" d="M698.434 467.602c1.98 0.99 1.98 0.99 4 2 0 7.26 0 14.52 0 22 2.64 1.32 5.28 2.64 8 4 5.085 6.865 4.318 13.725 4 22-0.66 0-1.32 0-2 0-0.781-3.906-1.563-7.813-2.344-11.719-1.42-4.62-1.42-4.62-5.719-7.969-5.347-5.857-5.125-9.996-5.438-17.813-0.113-2.341-0.227-4.682-0.344-7.094-0.052-1.784-0.103-3.568-0.156-5.406z"></path>
<path fill="#a33ff4" d="M688.434 695.602c1.32 0 2.64 0 4 0-0.66 1.32-1.32 2.64-2 4-0.66-1.32-1.32-2.64-2-4zM690.434 699.602c0 2.64 0 5.28 0 8-8.58 0-17.16 0-26 0 0.66-1.98 1.32-3.96 2-6 3.25-0.336 6.5-0.669 9.75-1 1.81-0.186 3.62-0.371 5.484-0.563 4.766-0.438 4.766-0.438 8.766-0.438z"></path>
<path fill="#9737f6" d="M762.434 523.602c1.32 1.32 2.64 2.64 4 4-0.203 7.523-1.982 9.98-7.125 15.625-1.609 1.444-3.217 2.888-4.875 4.375 0.936-9.552 2.487-16.090 8-24z"></path>
<path fill="#5a62f5" d="M616.286 284.618c5.91 1.402 10.907 3.97 16.148 6.984 0 3.3 0 6.6 0 10-2.995-2.539-5.99-5.078-8.984-7.617-6.308-4.984-11.125-4.705-19.016-4.383-1.98 0.66-3.96 1.32-6 2 0-1.32 0-2.64 0-4 6.866-4.577 9.899-4.19 17.852-2.984z"></path>
<path fill="#7479f6" d="M344.434 613.602c-0.66 1.98-1.32 3.96-2 6 4.62 0.66 9.24 1.32 14 2 0 0.66 0 1.32 0 2-8.58 0-17.16 0-26 0 0-2.64 0-5.28 0-8 4.926-2.463 8.559-2.143 14-2z"></path>
<path fill="#2491f5" d="M250.434 407.602c0.66 0 1.32 0 2 0 0.66 9.9 1.32 19.8 2 30-1.98-0.66-3.96-1.32-6-2-0.054-4.292-0.093-8.583-0.125-12.875-0.023-2.39-0.046-4.78-0.070-7.242 0.195-5.883 0.195-5.883 2.195-7.883z"></path>
<path fill="#1998f2" d="M302.434 301.602c1.32 0.66 2.64 1.32 4 2-0.565 2.92-1.153 5.836-1.75 8.75-0.325 1.624-0.65 3.248-0.984 4.922-1.266 4.328-1.266 4.328-5.266 8.328-0.66-0.66-1.32-1.32-2-2 1.193-14.789 1.193-14.789 6-22z"></path>
<path fill="#5b54ef" d="M694.434 271.602c8.549 3.166 12.531 9.011 18 16-1.32 1.32-2.64 2.64-4 4-5.28-5.28-10.56-10.56-16-16 0.66-1.32 1.32-2.64 2-4z"></path>
<path fill="#9e31f6" d="M598.434 783.602c7.75 3.5 7.75 3.5 10 8 0.080 4.666 0.086 9.334 0 14-1.32 0-2.64 0-4 0-3.375-4.5-3.375-4.5-6-10 0.75-4.375 0.75-4.375 2-8-0.66-1.32-1.32-2.64-2-4z"></path>
<path fill="#a76af3" d="M768.434 467.602c1.32 1.32 2.64 2.64 4 4-0.363 5.86-0.931 11.454-1.75 17.25-0.209 1.604-0.418 3.207-0.633 4.859-0.519 3.966-1.066 7.929-1.617 11.891-0.66 0-1.32 0-2 0-0.442-5.582-0.855-11.164-1.25-16.75-0.129-1.588-0.258-3.176-0.391-4.813-0.281-4.138-0.335-8.29-0.359-12.438 1.32-1.32 2.64-2.64 4-4z"></path>
<path fill="#2e86f4" d="M480.434 211.602c9.665 0.828 13.654 4.928 20 12-1.32 1.32-2.64 2.64-4 4-2.305-1.522-4.593-3.069-6.875-4.625-1.276-0.859-2.552-1.717-3.867-2.602-3.258-2.773-3.258-2.773-5.258-8.773z"></path>
<path fill="#4a9cf3" d="M254.434 429.602c0.66 0 1.32 0 2 0 1.32 7.26 2.64 14.52 4 22-1.98 1.32-3.96 2.64-6 4-1.32-5.94-2.64-11.88-4-18 1.32 0 2.64 0 4 0 0-2.64 0-5.28 0-8z"></path>
<path fill="#9e48f4" d="M719.434 569.352c0.99 0.742 1.98 1.485 3 2.25-5.524 5.524-10.414 5.157-18 6 0-1.32 0-2.64 0-4-1.98-0.66-3.96-1.32-6-2 14.769-4.431 14.769-4.431 21-2.25z"></path>
<path fill="#6a87ee" d="M270.434 545.602c5.772 0.796 7.644 1.58 11.5 6.125 0.825 1.279 1.65 2.558 2.5 3.875-1.98 1.32-3.96 2.64-6 4-4-3.625-4-3.625-8-8 0-1.98 0-3.96 0-6z"></path>
<path fill="#7366f3" d="M710.434 287.602c5.986 2.195 7.692 3.354 10.5 9.25 0.495 1.567 0.99 3.135 1.5 4.75-1.98 1.32-3.96 2.64-6 4-4.588-6.881-6-9.446-6-18z"></path>
<path fill="#609af3" d="M496.434 217.602c6 2 6 2 9.5 6.625 2.5 5.375 2.5 5.375 1.875 10-0.454 1.114-0.908 2.227-1.375 3.375-1.32 0-2.64 0-4 0-4.382-6.574-4.193-8.471-4-16-0.66-1.32-1.32-2.64-2-4z"></path>
<path fill="#1a97f3" d="M286.434 343.602c1.98 0.66 3.96 1.32 6 2 0 1.32 0 2.64 0 4-10.824 8-10.824 8-16 8 0.762-5.525 1.672-7.683 5.75-11.625 1.402-0.784 2.805-1.567 4.25-2.375z"></path>
<path fill="#5061f3" d="M634.434 237.602c3.3 2.64 6.6 5.28 10 8-0.66 2.64-1.32 5.28-2 8-9.75-9.5-9.75-9.5-12-14 1.32-0.66 2.64-1.32 4-2z"></path>
<path fill="#895bf5" d="M768.434 377.602c3.932 5.898 5.478 9.039 6 16-2.875 3.625-2.875 3.625-6 6-1.32-5.28-2.64-10.56-4-16 1.32 0 2.64 0 4 0 0-1.98 0-3.96 0-6z"></path>
<path fill="#7845fb" d="M420.434 791.602c1.98 0 3.96 0 6 0 0.619 2.227 1.238 4.455 1.875 6.75 1.772 6.839 1.772 6.839 4.125 11.25-3.96-1.32-7.92-2.64-12-4 0-4.62 0-9.24 0-14z"></path>
<path fill="#1298f3" d="M324.434 273.602c1.98 0.66 3.96 1.32 6 2-3.96 4.62-7.92 9.24-12 14-0.66-2.64-1.32-5.28-2-8 3.875-4.5 3.875-4.5 8-8z"></path>
<path fill="#ebf4f3" d="M272.434 349.602c1.98 0.66 3.96 1.32 6 2-6.667 6.667-13.333 13.333-20 20 1.186-6.784 3.535-10.422 8.125-15.5 1.096-1.227 2.191-2.454 3.32-3.719 0.843-0.918 1.686-1.836 2.555-2.781z"></path>
<path fill="#7271f1" d="M684.434 263.602c3.96 1.98 7.92 3.96 12 6-1.98 1.98-3.96 3.96-6 6-3.3-2.64-6.6-5.28-10-8 1.32-1.32 2.64-2.64 4-4z"></path>
<path fill="#6b9ff2" d="M252.434 473.602c2.977 2.227 2.977 2.227 6 6 0.586 5.836 0.586 5.836 0.375 12.375-0.054 2.173-0.108 4.347-0.164 6.586-0.070 1.663-0.139 3.326-0.211 5.039-0.66 0-1.32 0-2 0-0.121-1.276-0.242-2.552-0.367-3.867-0.168-1.653-0.335-3.305-0.508-5.008-0.162-1.647-0.325-3.295-0.492-4.992-0.211-4.106-0.211-4.106-2.633-6.133-0.081-3.332-0.085-6.668 0-10z"></path>
<path fill="#4dacf1" d="M400.434 225.602c1.32 2.64 2.64 5.28 4 8-6 4-6 4-12 4-1.32-0.66-2.64-1.32-4-2 3.96-3.3 7.92-6.6 12-10z"></path>
<path fill="#9b43f3" d="M692.434 617.602c4 0.625 4 0.625 8 2 0.66 1.32 1.32 2.64 2 4-1.98 2.97-1.98 2.97-4 6-2.64-3.3-5.28-6.6-8-10 0.66-0.66 1.32-1.32 2-2z"></path>
<path fill="#5cb2f0" d="M296.434 339.602c0.66 1.98 1.32 3.96 2 6-6.886 2.295-12.802 2-20 2 5.379-6.186 9.848-8 18-8z"></path>
<path fill="#5a5afb" d="M344.434 613.602c4.936 2.303 8.096 4.096 12 8-5.28 0-10.56 0-16 0 1.32-2.64 2.64-5.28 4-8z"></path>
<path fill="#8f9af1" d="M324.809 572.352c1.196 0.413 2.392 0.825 3.625 1.25-1.32 3.3-2.64 6.6-4 10-3.3-2.64-6.6-5.28-10-8 6-4 6-4 10.375-3.25z"></path>
<path fill="#a456f5" d="M764.434 511.602c3.125 3.375 3.125 3.375 6 8-0.625 5.5-0.625 5.5-2 10-3.125-2.25-3.125-2.25-6-6 0.625-6.375 0.625-6.375 2-12z"></path>
<path fill="#32a4f1" d="M330.434 267.602c4.25 0.75 4.25 0.75 8 2-2.64 2.64-5.28 5.28-8 8-1.32-1.98-2.64-3.96-4-6 1.32-1.32 2.64-2.64 4-4z"></path>
<path fill="#7c82f2" d="M644.434 249.602c3.891 0.484 3.891 0.484 8.25 1.75 1.449 0.407 2.898 0.815 4.391 1.234 1.109 0.335 2.217 0.67 3.359 1.016 0 0.66 0 1.32 0 2-3.341 0.433-3.341 0.433-6.75 0.875-6.893 0.692-6.893 0.692-11.25 3.125-0.66-1.98-1.32-3.96-2-6 1.32-1.32 2.64-2.64 4-4z"></path>
<path fill="#5a81f0" d="M598.434 213.602c4.375 0.625 4.375 0.625 8 2-0.66 1.98-1.32 3.96-2 6-5.94-0.99-5.94-0.99-12-2 2.5-3.125 2.5-3.125 6-6z"></path>
</svg>
